# xmcd
#
# Track frame offsets:
#	150
#	21327
#	36953
#	57894
#	72897
#	89728
#	107777
#	124954
#	141164
#	157122
#	169936
#	189867
#	204526
#	221052
#	233517
#	249791
#	261422
#	283393
#	301415
#	315288
#
# Disc length: 4429 seconds
#
# Revision: 2
# Processed by: cddbd v1.5.2PL0 Copyright (c) Steve Scherf et al.
# Submitted via: EasyCDDAExtractor 11.5.0.1
#
DISCID=2b114b14
DTITLE=Various Artist - NCT 070
DYEAR=2005
DGENRE=Country
TTITLE0=Tim McGraw - Drugs Or Jesus
TTITLE1=Trick Pony - It's A Heartache
TTITLE2=Darryl Worley - If Something Should Happen
TTITLE3=Buddy Jewell - If She Were Any Other Woman
TTITLE4=Katrina Elam - I Want A Cowboy
TTITLE5=Shania Twain - Don't
TTITLE6=Travis Tritt - I See Me
TTITLE7=SheDaisy - Don't Worry 'Bout A Thing
TTITLE8=Jeff Carson and Lisa Brokop - God Save The World
TTITLE9=Reckless Kelly - Baby's Got A Whole Lot More
TTITLE10=Jessie Alexander - Canyon Prayer
TTITLE11=Shelly Fairchild - Tiny Town
TTITLE12=Amber Dotson - I'll Try Anything
TTITLE13=Wayne Warner - Something About You
TTITLE14=Lila McCann - Go Easy On Me
TTITLE15=Cowboy Jack Clement - Ballad Of A Teenage Queen
TTITLE16=Randy Rogers Band - Tonight's Not The Night
TTITLE17=Jay Teter - Until You Find Your Mr Right
TTITLE18=Wrights - Down This Road
TTITLE19=Jeffrey Steele - Just The Way We Do It
EXTD=
EXTT0=
EXTT1=
EXTT2=
EXTT3=
EXTT4=
EXTT5=
EXTT6=
EXTT7=
EXTT8=
EXTT9=
EXTT10=
EXTT11=
EXTT12=
EXTT13=
EXTT14=
EXTT15=
EXTT16=
EXTT17=
EXTT18=
EXTT19=
PLAYORDER=
